<svg width="30" height="30" viewBox="0 0 30 30" fill="none" xmlns="http://www.w3.org/2000/svg">
<path d="M0 14.9651C0 6.69767 6.69767 0 14.9651 0C23.2326 0 29.9302 6.69767 29.9302 14.9651C29.9302 23.2326 23.2326 29.9302 14.9651 29.9302C6.69767 29.9128 0 23.2151 0 14.9651Z" fill="#5865F2"/>
<path d="M21.6976 8.87791C20.4243 8.30233 19.0988 7.88373 17.7209 7.65698C17.5464 7.97094 17.3546 8.3721 17.215 8.70349C15.7499 8.47675 14.2674 8.47675 12.8022 8.70349C12.6453 8.33721 12.4709 7.98838 12.279 7.65698C10.9011 7.88373 9.55806 8.30233 8.30225 8.89535C5.79062 12.6454 5.11039 16.2907 5.44178 19.9012C6.92434 21 8.56388 21.8372 10.3255 22.3605C10.7267 21.8198 11.0755 21.2616 11.372 20.6686C10.7964 20.4593 10.2557 20.1977 9.73248 19.8837C9.87202 19.7791 9.99411 19.6744 10.1336 19.5698C13.2209 21.0349 16.8139 21.0349 19.9011 19.5698C20.0406 19.6744 20.1627 19.7791 20.3022 19.8837C19.779 20.1977 19.2209 20.4593 18.6453 20.6686C18.9418 21.2616 19.2906 21.8198 19.6918 22.3605C21.4534 21.8198 23.1104 21 24.5755 19.9012C24.9592 15.7151 23.8778 12.0872 21.6976 8.87791ZM11.7906 17.6686C10.8313 17.6686 10.0639 16.7965 10.0639 15.7326C10.0639 14.6686 10.8313 13.7791 11.7906 13.7791C12.7674 13.7791 13.5348 14.6512 13.5348 15.7326C13.5174 16.7965 12.7674 17.6686 11.7906 17.6686ZM18.2092 17.6686C17.2499 17.6686 16.4825 16.7965 16.4825 15.7326C16.4825 14.6686 17.2499 13.7791 18.2092 13.7791C19.186 13.7791 19.9534 14.6512 19.936 15.7326C19.9185 16.814 19.1685 17.6686 18.2092 17.6686Z" fill="white"/>
</svg>
