<svg width="30" height="30" viewBox="0 0 30 30" fill="none" xmlns="http://www.w3.org/2000/svg">
<path d="M30 15C30 23.2838 23.2838 30 15 30C6.7162 30 0 23.2838 0 15C0 6.7162 6.7162 0 15 0C23.2855 0 30 6.7162 30 15Z" fill="#2081E2"/>
<path d="M7.40032 15.504L7.46506 15.4023L11.3672 9.29795C11.4242 9.20855 11.5583 9.21781 11.6014 9.31488C12.2533 10.7759 12.8158 12.5928 12.5523 13.724C12.4398 14.1894 12.1316 14.8197 11.7848 15.4023C11.7401 15.487 11.6908 15.5703 11.6384 15.6504C11.6137 15.6874 11.5721 15.709 11.5274 15.709H7.51436C7.40649 15.709 7.34332 15.5918 7.40032 15.504Z" fill="white"/>
<path d="M24.7933 16.6383V17.6046C24.7933 17.66 24.7594 17.7094 24.7101 17.7309C24.408 17.8604 23.3739 18.3351 22.9439 18.933C21.8467 20.4602 21.0083 22.644 19.1343 22.644H11.3163C8.54533 22.644 6.29993 20.3909 6.29993 17.6107V17.5213C6.29993 17.4474 6.36003 17.3873 6.43403 17.3873H10.7923C10.8786 17.3873 10.9418 17.4674 10.9341 17.5522C10.9032 17.8357 10.9556 18.1255 11.0897 18.389C11.3486 18.9145 11.8849 19.2428 12.4644 19.2428H14.6219V17.5583H12.489C12.3796 17.5583 12.3149 17.432 12.3781 17.3426C12.4012 17.3071 12.4274 17.2701 12.4551 17.2285C12.657 16.9419 12.9452 16.4965 13.2319 15.9895C13.4276 15.6474 13.6171 15.2821 13.7697 14.9153C13.8005 14.8491 13.8252 14.7813 13.8498 14.715C13.8915 14.5979 13.9346 14.4884 13.9654 14.379C13.9962 14.2866 14.0209 14.1895 14.0456 14.0985C14.118 13.7872 14.1488 13.4574 14.1488 13.1153C14.1488 12.9812 14.1427 12.841 14.1303 12.7069C14.1242 12.5605 14.1057 12.4141 14.0872 12.2677C14.0748 12.1382 14.0517 12.0103 14.0271 11.8763C13.9962 11.6805 13.9531 11.4864 13.9038 11.2906L13.8868 11.2167C13.8498 11.0826 13.819 10.9547 13.7759 10.8206C13.6541 10.3999 13.5139 9.98993 13.3659 9.6062C13.312 9.45363 13.2503 9.30723 13.1887 9.16083C13.0978 8.94043 13.0053 8.7401 12.9206 8.55053C12.8774 8.46423 12.8404 8.38563 12.8034 8.3055C12.7618 8.21457 12.7187 8.12367 12.6755 8.03733C12.6447 7.97107 12.6092 7.90943 12.5846 7.8478L12.3211 7.3608C12.2841 7.29453 12.3457 7.21593 12.4181 7.23597L14.0671 7.6829H14.0718C14.0748 7.6829 14.0764 7.68443 14.0779 7.68443L14.2952 7.74453L14.5341 7.81233L14.6219 7.837V6.85687C14.6219 6.38373 15.0011 6 15.4696 6C15.7038 6 15.9165 6.09553 16.069 6.2512C16.2216 6.40687 16.3172 6.61953 16.3172 6.85687V8.31167L16.4928 8.36097C16.5067 8.3656 16.5206 8.37177 16.5329 8.381C16.5761 8.41337 16.6377 8.46117 16.7163 8.5197C16.778 8.56903 16.8442 8.62913 16.9244 8.69077C17.0831 8.8187 17.2726 8.9836 17.4807 9.17313C17.5362 9.22093 17.5901 9.27023 17.6394 9.31957C17.9076 9.5692 18.2081 9.86203 18.4948 10.1857C18.5749 10.2766 18.6535 10.369 18.7336 10.4661C18.8138 10.5648 18.8985 10.6619 18.9725 10.759C19.0696 10.8884 19.1744 11.0225 19.2653 11.1627C19.3085 11.229 19.3578 11.2968 19.3994 11.3631C19.5165 11.5403 19.6198 11.7237 19.7184 11.9071C19.76 11.9918 19.8032 12.0843 19.8401 12.1752C19.9496 12.4203 20.0359 12.6699 20.0913 12.9196C20.1083 12.9735 20.1206 13.0321 20.1268 13.0845V13.0968C20.1453 13.1708 20.1514 13.2494 20.1576 13.3295C20.1823 13.5853 20.1699 13.8412 20.1145 14.0985C20.0913 14.208 20.0605 14.3112 20.0235 14.4206C19.9865 14.5254 19.9496 14.6348 19.9018 14.7381C19.8093 14.9523 19.6999 15.1665 19.5704 15.3669C19.5288 15.4408 19.4795 15.5194 19.4302 15.5934C19.3763 15.672 19.3208 15.746 19.2715 15.8184C19.2037 15.9109 19.1312 16.008 19.0573 16.0943C18.991 16.1852 18.9232 16.2761 18.8492 16.3563C18.746 16.478 18.6473 16.5936 18.5441 16.7046C18.4824 16.777 18.4162 16.851 18.3483 16.9172C18.2821 16.9912 18.2143 17.0575 18.1526 17.1191C18.0494 17.2224 17.9631 17.3025 17.8906 17.3688L17.7211 17.5244C17.6965 17.546 17.6641 17.5583 17.6302 17.5583H16.3172V19.2428H17.9692C18.3391 19.2428 18.6905 19.1118 18.974 18.8714C19.0711 18.7866 19.4949 18.4198 19.9958 17.8666C20.0127 17.8481 20.0343 17.8342 20.059 17.828L24.6222 16.5088C24.707 16.4842 24.7933 16.5489 24.7933 16.6383Z" fill="white"/>
</svg>
